<svg width="33" height="32" viewBox="0 0 33 32" fill="none" xmlns="http://www.w3.org/2000/svg">
<g clip-path="url(#clip0_243_2555)">
<path d="M16.5027 9.84426C13.0952 9.84426 10.3468 12.5927 10.3468 16.0001C10.3468 19.4075 13.0952 22.156 16.5027 22.156C19.9101 22.156 22.6585 19.4075 22.6585 16.0001C22.6585 12.5927 19.9101 9.84426 16.5027 9.84426ZM16.5027 20.0022C14.3007 20.0022 12.5006 18.2074 12.5006 16.0001C12.5006 13.7928 14.2953 11.998 16.5027 11.998C18.71 11.998 20.5048 13.7928 20.5048 16.0001C20.5048 18.2074 18.7046 20.0022 16.5027 20.0022ZM24.3462 9.59245C24.3462 10.3907 23.7033 11.0283 22.9103 11.0283C22.1121 11.0283 21.4745 10.3854 21.4745 9.59245C21.4745 8.79953 22.1174 8.15662 22.9103 8.15662C23.7033 8.15662 24.3462 8.79953 24.3462 9.59245ZM28.4233 11.0497C28.3322 9.12634 27.8929 7.42263 26.4838 6.01894C25.0802 4.61526 23.3764 4.17594 21.4531 4.0795C19.4708 3.96699 13.5292 3.96699 11.5469 4.0795C9.62889 4.17058 7.92518 4.6099 6.51614 6.01359C5.10709 7.41727 4.67313 9.12098 4.57669 11.0444C4.46418 13.0267 4.46418 18.9682 4.57669 20.9505C4.66777 22.8739 5.10709 24.5776 6.51614 25.9813C7.92518 27.385 9.62353 27.8243 11.5469 27.9207C13.5292 28.0332 19.4708 28.0332 21.4531 27.9207C23.3764 27.8297 25.0802 27.3903 26.4838 25.9813C27.8875 24.5776 28.3269 22.8739 28.4233 20.9505C28.5358 18.9682 28.5358 13.032 28.4233 11.0497ZM25.8624 23.0775C25.4445 24.1276 24.6355 24.9366 23.58 25.3598C21.9995 25.9866 18.2492 25.842 16.5027 25.842C14.7561 25.842 11.0004 25.9813 9.4253 25.3598C8.37522 24.9419 7.56622 24.1329 7.14297 23.0775C6.51614 21.497 6.66079 17.7467 6.66079 16.0001C6.66079 14.2535 6.52149 10.4979 7.14297 8.92275C7.56086 7.87267 8.36986 7.06367 9.4253 6.64042C11.0058 6.01359 14.7561 6.15824 16.5027 6.15824C18.2492 6.15824 22.0049 6.01894 23.58 6.64042C24.6301 7.05831 25.4391 7.86731 25.8624 8.92275C26.4892 10.5032 26.3445 14.2535 26.3445 16.0001C26.3445 17.7467 26.4892 21.5024 25.8624 23.0775Z" fill="white"/>
</g>
<defs>
<clipPath id="clip0_243_2555">
<rect width="24" height="24" fill="white" transform="translate(4.5 4)"/>
</clipPath>
</defs>
</svg>
