<?xml version="1.0" encoding="UTF-8"?>
<svg id="Capa_1" data-name="Capa 1" xmlns="http://www.w3.org/2000/svg" version="1.1" viewBox="0 0 368.5 510.24">
  <defs>
    <style>
      .cls-1 {
        fill: #000;
      }

      .cls-1, .cls-2 {
        stroke-width: 0px;
      }

      .cls-2 {
        fill: #fff;
      }
    </style>
  </defs>
  <g id="Logo">
    <path class="cls-2" d="M100.94,203.08c5.81,0,11.62-.03,17.43,0,8.15.05,14.56-3.43,19.36-9.81,8.54-11.35,16.92-22.82,25.39-34.23,4.93-6.64,11.35-11.04,19.55-12.59,4.4-.83,8.74-.5,12.83,1.42,5.5,2.58,8.27,7.15,9.61,12.93,2.23,9.61,4.56,19.19,7.07,28.73,1.98,7.53,7.12,11.83,14.7,13.33,1.54.3,3.22.43,4.94.5,21.89.03,43.5-.11,65.39-.08,5.16,0,9.81,1.45,13.48,5.24,4.66,4.81,5.64,10.72,4.33,16.99-2.02,9.73-8.22,16.24-16.69,20.98-21.66,12.12-43.28,24.31-64.87,36.56-6.38,3.62-10.64,9.01-11.86,16.37-.56,3.39-.61,6.87-.87,10.3-.7,9.44-1.18,18.9-2.12,28.31-.85,8.51-5.41,15.05-12.12,20.15-4.51,3.43-9.6,5.53-15.29,5.94-4.12.3-8.06-.41-11.63-2.56-10.44-6.28-20.9-12.52-31.26-18.94-5.18-3.21-10.52-3.52-15.9-1.2-8.09,3.49-16.03,7.33-24.03,11.02-7.17,3.3-14.26,6.78-21.53,9.82-5.61,2.35-11.49,2.62-17.19.12-7.15-3.13-10.92-10.28-10.03-18.35.43-3.96,2.03-7.51,3.53-11.11,5.57-13.35,11.23-26.67,16.69-40.08,1.97-4.83,1.67-9.63-1.17-14.24-7.76-12.58-15.44-25.21-23.07-37.87-3.22-5.33-3.33-11.15-1.28-16.79,4.13-11.34,12.23-18.38,24.15-20.67,4.39-.84,8.91-.26,13.36-.31,3.03-.03,6.06,0,9.09,0,0,.04,0,.08,0,.12Z"/>
    <path class="cls-1" d="M100.5,204.6c5.89,0,11.79-.08,17.68.02,8.77.15,15.63-3.57,20.8-10.4,7.71-10.19,15.25-20.51,22.84-30.79,2.62-3.55,5.17-7.17,8.77-9.84,5.62-4.18,11.8-6.55,18.93-5.79,6.9.74,12.09,5.35,13.73,12.07,2.49,10.19,5,20.37,7.55,30.55,1.94,7.78,9.18,13.64,17.53,14.2,4.39.39,13.55.19,20.33.21,16.25.06,32.5.03,48.76.06,5.83.01,10.74,2.02,14,7.05,2.89,4.47,3.17,9.42,1.83,14.45-2.3,8.62-7.98,14.43-15.61,18.7-21.73,12.17-43.43,24.38-65.08,36.69-6.67,3.79-11.14,9.46-12.45,17.17-.59,3.51-.63,7.12-.91,10.68-.71,9.35-1.36,18.71-2.13,28.06-.48,5.78-3.02,10.71-6.85,14.97-5.02,5.57-11.17,9.09-18.73,9.89-4.62.49-8.76-.79-12.7-3.21-9.98-6.14-20.06-12.13-30.04-18.26-5.09-3.12-10.42-3.39-15.87-1.51-4.72,1.63-9.12,4.06-13.65,6.14-10.67,4.91-21.29,9.95-32.02,14.75-5.48,2.45-11.19,2.93-16.9.51-6.89-2.93-9.85-9.95-9.15-16.68.43-4.14,2.21-7.81,3.78-11.56,5.41-12.97,10.92-25.89,16.24-38.9,2.31-5.64,1.91-11.12-1.44-16.48-7.62-12.22-14.99-24.6-22.51-36.89-3.03-4.95-3.4-10.24-1.57-15.53,3.9-11.26,11.87-18.08,23.63-20.22,3.27-.59,6.64-.16,9.96-.18,3.75-.02,7.49,0,11.24,0v.08Z"/>
    <path class="cls-2" d="M104.76,220.58c6.74,0,13.47-.12,20.21.04,5.19.13,9.04-2.03,12.04-6.09,9.16-12.36,18.34-24.7,27.51-37.05,1.88-2.53,3.63-5.18,6.56-6.69,1.74-.9,3.55-1.51,5.53-1.54,4.16-.06,6.92,1.93,7.93,5.94,1.76,6.96,3.42,13.94,5.11,20.91,1.53,6.28,3.02,12.56,4.58,18.83.95,3.82,3.69,5.79,7.93,5.8,14.02.02,28.04.02,42.06.03,9.77,0,19.53-.01,29.3.03,4.84.02,8.1,3.49,7.74,8.14-.14,1.78-.66,3.46-1.56,5.01-1.25,2.16-2.99,3.85-5.15,5.07-21.95,12.37-43.9,24.73-65.86,37.08-2.54,1.43-5.03,2.87-6.73,5.36-1.34,1.96-2.08,4.07-2.26,6.44-.78,10.32-1.61,20.63-2.41,30.94-.3,3.82-.61,7.63-.82,11.45-.34,6.31-5.33,11.77-11.57,12.58-2.27.29-4.3-.27-6.25-1.45-11.34-6.9-22.71-13.75-34.02-20.68-3.22-1.97-6.47-1.99-9.75-.49-15.21,7-30.39,14.06-45.58,21.11-2.54,1.18-5.12,1.91-7.92,1.12-4.03-1.14-6.32-5.07-5.28-9.14.86-3.35,2.47-6.41,3.79-9.58,5.39-12.89,10.84-25.74,16.23-38.63,1.26-3.01,1.03-5.9-.73-8.78-7.96-13-15.84-26.05-23.74-39.08-2.2-3.62-1.51-7.15.65-10.43,2.68-4.08,6.44-6.37,11.49-6.33,6.99.06,13.98.01,20.96.01v.06Z"/>
  </g>
</svg>