<?xml version="1.0" encoding="UTF-8" standalone="no"?>
<svg
   xmlns:dc="http://purl.org/dc/elements/1.1/"
   xmlns:cc="http://creativecommons.org/ns#"
   xmlns:rdf="http://www.w3.org/1999/02/22-rdf-syntax-ns#"
   xmlns:svg="http://www.w3.org/2000/svg"
   xmlns="http://www.w3.org/2000/svg"
   viewBox="0 0 491.33868 680.3147"
   height="680.3147"
   width="491.33868"
   xml:space="preserve"
   id="svg2"
   version="1.1"><metadata
     id="metadata8"><rdf:RDF><cc:Work
         rdf:about=""><dc:format>image/svg+xml</dc:format><dc:type
           rdf:resource="http://purl.org/dc/dcmitype/StillImage" /></cc:Work></rdf:RDF></metadata><defs
     id="defs6"><clipPath
       id="clipPath18"
       clipPathUnits="userSpaceOnUse"><path
         id="path16"
         d="M 0,510.236 H 368.504 V 0 H 0 Z" /></clipPath></defs><g
     transform="matrix(1.3333333,0,0,-1.3333333,0,680.31467)"
     id="g10"><g
       id="g12"><g
         clip-path="url(#clipPath18)"
         id="g14"><g
           transform="translate(313.2437,283.8467)"
           id="g20"><path
             id="path22"
             style="fill:#000000;fill-opacity:1;fill-rule:nonzero;stroke:none"
             d="m 0,0 c -2.304,-8.615 -7.982,-14.425 -15.608,-18.697 -21.727,-12.168 -43.43,-24.379 -65.078,-36.688 -6.67,-3.793 -11.14,-9.464 -12.446,-17.171 -0.595,-3.511 -0.635,-7.117 -0.906,-10.681 -0.71,-9.352 -1.356,-18.71 -2.131,-28.056 -0.479,-5.781 -3.017,-10.713 -6.852,-14.97 -5.019,-5.569 -11.17,-9.095 -18.727,-9.889 -4.616,-0.485 -8.763,0.79 -12.697,3.21 -9.982,6.139 -20.058,12.126 -30.044,18.259 -5.086,3.123 -10.417,3.386 -15.869,1.508 -4.723,-1.627 -9.119,-4.056 -13.654,-6.143 -10.675,-4.914 -21.293,-9.952 -32.022,-14.745 -5.478,-2.448 -11.19,-2.93 -16.895,-0.508 -6.894,2.926 -9.854,9.952 -9.152,16.679 0.431,4.135 2.214,7.809 3.778,11.558 5.41,12.968 10.925,25.893 16.242,38.899 2.308,5.644 1.906,11.121 -1.438,16.484 -7.62,12.224 -14.993,24.601 -22.51,36.89 -3.027,4.949 -3.405,10.239 -1.572,15.525 3.904,11.26 11.868,18.077 23.629,20.216 3.269,0.594 6.64,0.164 9.965,0.184 3.747,0.022 7.494,0.005 11.241,0.005 v -0.08 c 5.894,0 11.79,0.079 17.683,-0.019 8.774,-0.146 15.632,3.567 20.803,10.404 7.708,10.191 15.246,20.51 22.839,30.787 2.625,3.553 5.168,7.166 8.775,9.845 5.624,4.177 11.797,6.552 18.927,5.785 6.897,-0.742 12.087,-5.345 13.731,-12.065 2.491,-10.19 5.003,-20.374 7.547,-30.55 1.944,-7.776 9.18,-13.638 17.535,-14.201 4.386,-0.393 13.551,-0.186 20.326,-0.211 16.252,-0.061 32.504,-0.03 48.756,-0.065 5.825,-0.013 10.742,-2.024 13.996,-7.053 C 1.065,9.972 1.343,5.023 0,0 m -2.554,17.862 c -3.668,3.786 -8.316,5.23 -13.479,5.237 -21.893,0.034 -43.497,-0.108 -65.39,-0.079 -1.721,0.07 -3.398,0.2 -4.939,0.504 -7.581,1.496 -12.723,5.794 -14.702,13.326 -2.505,9.536 -4.841,19.12 -7.067,28.725 -1.339,5.781 -4.115,10.35 -9.614,12.928 -4.097,1.921 -8.435,2.251 -12.832,1.417 -8.199,-1.553 -14.616,-5.948 -19.546,-12.588 -8.469,-11.406 -16.849,-22.88 -25.393,-34.229 -4.801,-6.378 -11.212,-9.859 -19.362,-9.805 -5.81,0.038 -11.621,0.007 -17.431,0.007 v 0.121 c -3.031,0 -6.062,0.027 -9.093,-0.006 -4.458,-0.049 -8.97,0.536 -13.364,-0.308 -11.924,-2.293 -20.028,-9.337 -24.155,-20.675 -2.055,-5.647 -1.937,-11.459 1.279,-16.792 7.632,-12.659 15.314,-25.289 23.072,-37.872 2.845,-4.615 3.138,-9.416 1.172,-14.243 -5.458,-13.401 -11.117,-26.721 -16.692,-40.076 -1.502,-3.598 -3.095,-7.149 -3.53,-11.11 -0.885,-8.061 2.886,-15.217 10.034,-18.345 5.7,-2.495 11.586,-2.228 17.192,0.122 7.271,3.047 14.363,6.524 21.529,9.823 8.006,3.686 15.944,7.528 24.034,11.016 5.381,2.32 10.718,2.011 15.898,-1.2 10.353,-6.419 20.82,-12.653 31.256,-18.937 3.577,-2.155 7.517,-2.865 11.634,-2.565 5.694,0.414 10.779,2.512 15.292,5.941 6.706,5.095 11.265,11.639 12.119,20.15 0.943,9.413 1.427,18.872 2.124,28.309 0.254,3.439 0.307,6.915 0.867,10.305 1.217,7.368 5.477,12.753 11.862,16.375 21.588,12.244 43.21,24.431 64.866,36.556 8.473,4.743 14.672,11.256 16.693,20.982 1.302,6.262 0.327,12.175 -4.334,16.986" /></g><g
           transform="translate(104.7639,289.6538)"
           id="g24"><path
             id="path26"
             style="fill:#000000;fill-opacity:1;fill-rule:nonzero;stroke:none"
             d="m 0,0 c 6.736,0 13.474,0.123 20.206,-0.04 5.195,-0.126 9.036,2.032 12.041,6.086 9.158,12.358 18.337,24.701 27.507,37.05 1.879,2.53 3.633,5.176 6.558,6.688 1.739,0.9 3.546,1.513 5.526,1.541 4.157,0.058 6.921,-1.933 7.932,-5.94 1.756,-6.957 3.417,-13.937 5.113,-20.909 1.527,-6.278 3.023,-12.564 4.581,-18.834 0.948,-3.816 3.688,-5.793 7.931,-5.798 14.019,-0.019 28.038,-0.025 42.057,-0.035 9.766,-0.007 19.533,0.013 29.3,-0.03 4.844,-0.021 8.099,-3.486 7.74,-8.138 -0.138,-1.781 -0.655,-3.459 -1.556,-5.01 -1.254,-2.161 -2.986,-3.85 -5.154,-5.071 -21.948,-12.368 -43.898,-24.732 -65.858,-37.077 -2.542,-1.429 -5.032,-2.87 -6.731,-5.361 -1.336,-1.958 -2.084,-4.069 -2.263,-6.442 -0.775,-10.316 -1.609,-20.628 -2.408,-30.942 -0.296,-3.815 -0.615,-7.63 -0.819,-11.451 -0.337,-6.307 -5.33,-11.773 -11.575,-12.578 -2.268,-0.292 -4.304,0.269 -6.247,1.452 -11.335,6.904 -22.705,13.75 -34.024,20.679 -3.217,1.969 -6.474,1.994 -9.748,0.487 -15.21,-7.001 -30.392,-14.062 -45.579,-21.113 -2.535,-1.178 -5.117,-1.909 -7.92,-1.115 -4.028,1.14 -6.324,5.069 -5.276,9.144 0.861,3.347 2.467,6.414 3.792,9.583 5.388,12.886 10.842,25.744 16.231,38.629 1.26,3.012 1.035,5.903 -0.725,8.778 -7.959,12.999 -15.837,26.047 -23.74,39.081 -2.195,3.621 -1.507,7.147 0.65,10.432 2.68,4.084 6.441,6.372 11.493,6.331 C -13.977,0.02 -6.988,0.063 0,0.063 Z" /></g></g></g></g></svg>