<svg width="33" height="32" viewBox="0 0 33 32" fill="none" xmlns="http://www.w3.org/2000/svg">
<path d="M26.3062 6.06875C23.6875 3.44375 20.2 2 16.4937 2C8.84375 2 2.61875 8.225 2.61875 15.875C2.61875 18.3188 3.25625 20.7062 4.46875 22.8125L2.5 30L9.85625 28.0688C11.8813 29.175 14.1625 29.7563 16.4875 29.7563H16.4937C24.1375 29.7563 30.5 23.5312 30.5 15.8813C30.5 12.175 28.925 8.69375 26.3062 6.06875ZM16.4937 27.4188C14.4187 27.4188 12.3875 26.8625 10.6187 25.8125L10.2 25.5625L5.8375 26.7062L7 22.45L6.725 22.0125C5.56875 20.175 4.9625 18.0562 4.9625 15.875C4.9625 9.51875 10.1375 4.34375 16.5 4.34375C19.5812 4.34375 22.475 5.54375 24.65 7.725C26.825 9.90625 28.1625 12.8 28.1562 15.8813C28.1562 22.2438 22.85 27.4188 16.4937 27.4188ZM22.8188 18.7812C22.475 18.6063 20.7688 17.7688 20.45 17.6562C20.1313 17.5375 19.9 17.4812 19.6688 17.8312C19.4375 18.1812 18.775 18.9563 18.5688 19.1938C18.3688 19.425 18.1625 19.4562 17.8188 19.2812C15.7812 18.2625 14.4438 17.4625 13.1 15.1562C12.7438 14.5437 13.4562 14.5875 14.1187 13.2625C14.2312 13.0312 14.175 12.8313 14.0875 12.6562C14 12.4812 13.3063 10.775 13.0188 10.0813C12.7375 9.40625 12.45 9.5 12.2375 9.4875C12.0375 9.475 11.8062 9.475 11.575 9.475C11.3438 9.475 10.9688 9.5625 10.65 9.90625C10.3312 10.2563 9.4375 11.0938 9.4375 12.8C9.4375 14.5063 10.6813 16.1563 10.85 16.3875C11.025 16.6188 13.2937 20.1187 16.775 21.625C18.975 22.575 19.8375 22.6562 20.9375 22.4937C21.6063 22.3937 22.9875 21.6562 23.275 20.8438C23.5625 20.0312 23.5625 19.3375 23.475 19.1938C23.3938 19.0375 23.1625 18.95 22.8188 18.7812Z" fill="white"/>
</svg>
