<svg width="33" height="32" viewBox="0 0 33 32" fill="none" xmlns="http://www.w3.org/2000/svg">
<g clip-path="url(#clip0_243_2566)">
<path d="M26.4492 10.75C26.25 9.65039 25.3008 8.84961 24.1992 8.59961C22.5508 8.25 19.5 8 16.1992 8C12.9004 8 9.80078 8.25 8.15039 8.59961C7.05078 8.84961 6.09961 9.59961 5.90039 10.75C5.69922 12 5.5 13.75 5.5 16C5.5 18.25 5.69922 20 5.94922 21.25C6.15039 22.3496 7.09961 23.1504 8.19922 23.4004C9.94922 23.75 12.9492 24 16.25 24C19.5508 24 22.5508 23.75 24.3008 23.4004C25.4004 23.1504 26.3496 22.4004 26.5508 21.25C26.75 20 27 18.1992 27.0508 16C26.9492 13.75 26.6992 12 26.4492 10.75ZM13.5 19.5V12.5L19.5996 16L13.5 19.5Z" fill="white"/>
</g>
<defs>
<clipPath id="clip0_243_2566">
<rect width="24" height="24" fill="white" transform="translate(4.5 4)"/>
</clipPath>
</defs>
</svg>
